<svg xmlns="http://www.w3.org/2000/svg" xmlns:xlink="http://www.w3.org/1999/xlink" version="1.1" width="1000" height="1000" viewBox="0 0 1000 1000" xml:space="preserve">
<desc>Created with Fabric.js 3.5.0</desc>
<defs>
</defs>
<rect x="0" y="0" width="100%" height="100%" fill="rgba(255,255,255,0)"/>
<g transform="matrix(0.7334 0 0 0.7334 499.9973 499.9973)" id="597058">
<g style="" vector-effect="non-scaling-stroke">
		<g transform="matrix(1 0 0 1 -450 -450)">
<rect style="stroke: none; stroke-width: 1; stroke-dasharray: none; stroke-linecap: butt; stroke-dashoffset: 0; stroke-linejoin: miter; stroke-miterlimit: 4; is-custom-font: none; font-file-url: none; fill: rgb(255,255,255); fill-opacity: 0; fill-rule: nonzero; opacity: 1;" x="-50" y="-50" rx="0" ry="0" width="100" height="100"/>
</g>
		<g transform="matrix(14.2045 0 0 14.2045 -0.0013 -0.0014)" id="Layer_1">
<path style="stroke: none; stroke-width: 1; stroke-dasharray: none; stroke-linecap: butt; stroke-dashoffset: 0; stroke-linejoin: miter; stroke-miterlimit: 4; is-custom-font: none; font-file-url: none; fill: rgb(0,175,208); fill-rule: evenodd; opacity: 1;" vector-effect="non-scaling-stroke" transform=" translate(-32, -32)" d="M 56 28 c -1.105 0 -2 -0.895 -2 -2 c 0 -0.01 -0.002 -0.017 -0.002 -0.026 c 0 -0.013 0.002 -0.024 0.002 -0.036 C 54 13.82 44.15 4 32 4 s -22 9.82 -22 21.938 c 0 0.012 0.002 0.023 0.002 0.036 C 10.002 25.983 10 25.99 10 26 c 0 0.056 0.007 0.111 0.01 0.167 c 0.005 0.427 0.026 0.861 0.065 1.302 c 0.167 2.529 0.739 4.945 1.689 7.169 C 16.116 46.682 27.37 59.75 32 59.75 c 3.321 0 10.01 -6.69 15.145 -14.901 l 0.012 0.007 C 47.529 44.34 48.133 44 48.819 44 c 1.135 0 2.056 0.919 2.056 2.056 c 0 0.468 -0.162 0.895 -0.427 1.241 C 44.551 56.592 36.608 64 32 64 c -6.766 0 -20.337 -15.474 -24.647 -29.765 c -0.661 -1.985 -1.089 -4.075 -1.251 -6.242 C 6.041 27.321 6 26.652 6 26 C 6 11.642 17.642 0 32 0 c 14.359 0 26 11.642 26 26 C 58 27.105 57.105 28 56 28 L 56 28 z M 54 32 c 1.105 0 2 0.895 2 2 s -0.895 2 -2 2 s -2 -0.895 -2 -2 S 52.895 32 54 32 L 54 32 z" stroke-linecap="round"/>
</g>
		<g transform="matrix(14.2045 0 0 14.2045 -0.0008 -85.2281)" id="Layer_1">
<path style="stroke: none; stroke-width: 1; stroke-dasharray: none; stroke-linecap: butt; stroke-dashoffset: 0; stroke-linejoin: miter; stroke-miterlimit: 4; is-custom-font: none; font-file-url: none; fill: rgb(255,75,0); fill-rule: evenodd; opacity: 1;" vector-effect="non-scaling-stroke" transform=" translate(-32, -26)" d="M 32 42 c -8.836 0 -16 -7.164 -16 -16 c 0 -1.433 0.209 -2.814 0.562 -4.139 c 0.065 -0.193 0.131 -0.388 0.228 -0.574 c 1.016 -1.964 3.431 -2.729 5.392 -1.714 c 0.041 0.021 0.068 0.015 0.104 0.026 C 22.808 19.85 23.385 20 24 20 c 1.009 0 1.918 -0.386 2.621 -1.001 l 0.014 0.017 c 0.356 -0.337 0.834 -0.548 1.365 -0.548 c 1.105 0 2 0.897 2 2 c 0 0.744 -0.41 1.385 -1.011 1.729 c -2.485 2 -5.859 2.303 -8.618 0.893 C 20.139 24.021 20 24.994 20 26 c 0 6.628 5.372 12 12 12 s 12 -5.372 12 -12 s -5.372 -12 -12 -12 c -0.582 0 -1.151 0.056 -1.709 0.141 l -0.008 -0.044 c -0.092 0.013 -0.187 0.029 -0.283 0.029 c -1.105 0 -2 -0.896 -2 -2 c 0 -1.105 0.895 -2 2 -2 c 0.029 0 0.056 0.007 0.085 0.007 C 30.713 10.056 31.351 10 32 10 c 8.836 0 16 7.164 16 16 S 40.836 42 32 42 L 32 42 z" stroke-linecap="round"/>
</g>
</g>
</g>
</svg>